<?xml version="1.0" encoding="UTF-8"?>
<svg width="127px" height="135px" viewBox="0 0 127 135" version="1.1" xmlns="http://www.w3.org/2000/svg" xmlns:xlink="http://www.w3.org/1999/xlink">
    <!-- Generator: Sketch 55.2 (78181) - https://sketchapp.com -->
    <title>svg/logo-block</title>
    <desc>Created with Sketch.</desc>
    <g id="Symbols" stroke="none" stroke-width="1" fill="none" fill-rule="evenodd">
        <g id="navigation/header" transform="translate(-135.000000, 0.000000)">
            <g id="Group-3" transform="translate(135.000000, 0.000000)">
                <g id="Group-7">
                    <g id="svg/logo-block">
                        <rect id="Rectangle" fill="#555F64" x="0" y="0" width="127" height="135"></rect>
                        <g id="logos/nuj-white" transform="translate(16.000000, 24.000000)" fill="#FFFFFF">
                            <g id="Group-41">
                                <path d="M0,0 L0,36.030303 L12.3431679,36.030303 L12.3431679,22.955036 C12.3431679,23.2430024 20.1570354,36.030303 20.1570354,36.030303 L31.706422,36.030303 L31.706422,0 L19.2129367,0 L19.2129367,12.9412366 L11.3133619,0 L0,0 Z" id="Fill-1"></path>
                                <path d="M35.2385007,0 L35.2385007,24.1161378 C35.2385007,24.1161378 34.7665875,29.2116275 40.603548,33.1486377 C45.1262696,36.1989105 50.5189989,36.0285841 51.7198731,36.0285841 C52.6926999,36.0285841 57.2945131,36.0233832 61.5746872,33.214948 C64.8965346,31.0358102 66.9357798,27.0896986 66.9357798,24.1161378 C66.9357798,22.2100423 66.8922794,0 66.8922794,0 L54.1888494,0 L54.1888494,22.7899322 C54.1888494,22.7899322 54.1242579,25.2746173 51.1187769,25.2551143 C49.101941,25.2408121 47.977522,23.8313936 47.977522,22.7808308 L47.977522,0 L35.2385007,0 Z" id="Fill-3"></path>
                                <path d="M83.3369938,23.977489 C83.3369938,24.4662949 82.9844735,24.8315993 82.4774779,24.8315993 C81.9691621,24.8315993 81.5585485,24.4376945 81.5585485,23.9475886 L81.5506267,18.0624177 L69.5820988,18.0624177 L69.5820988,24.1126906 C69.5820988,24.1126906 69.2652266,29.0540502 74.1912693,33.1438995 C77.7508006,36.0975351 80.7901333,35.9766336 82.6517577,36.0234342 C84.632209,36.0715347 88.9746788,35.9142329 91.7737167,33.9993098 C93.788496,32.6212932 96,28.8343475 96,24.1126906 L96,0 L83.3396344,0 L83.3369938,23.977489 Z" id="Fill-5"></path>
                                <path d="M6.16513761,53.6060606 L3.91480599,53.6060606 L2.70413004,49.4796907 C2.68075317,49.3827973 2.64630304,49.2187243 2.49619891,48.6257363 C2.28826777,47.8079554 2.27719452,47.7369002 2.06926338,46.6219793 L2.09264026,46.894573 C2.13816364,47.5947898 2.11478677,47.2149674 2.17261377,48.0327483 L2.19599064,48.3415154 C2.27719452,49.3492075 2.30057139,49.6566828 2.30057139,49.96545 L2.30057139,53.6060606 L0.880733945,53.6060606 L0.880733945,45.6969697 L3.02648482,45.6969697 L3.91480599,48.4358251 C4.04276361,48.7911011 4.23839113,49.5145724 4.42294539,50.2742172 C4.60749965,51.0441973 4.69977678,51.5067021 4.89663466,52.5609031 C4.83880766,51.6953214 4.81543079,51.32971 4.79205391,50.6411204 L4.78098066,50.3930732 C4.75760379,49.6566828 4.75760379,49.8349668 4.75760379,49.7031917 C4.74653053,49.4680635 4.74653053,49.3608347 4.74653053,49.3014067 L4.74653053,45.6969697 L6.16513761,45.6969697 L6.16513761,53.6060606 Z" id="Fill-7"></path>
                                <path d="M14.9724771,53.6060606 L13.2854374,53.6060606 L12.8549942,51.8516429 L10.7027781,51.8516429 L10.2735754,53.6060606 L8.80733945,53.6060606 L10.8888487,45.6969697 L12.9827626,45.6969697 L14.9724771,53.6060606 Z M12.1690141,48.6967915 C12.0759788,48.2704602 12.0300814,47.9733203 11.9134772,47.2627682 C11.9010725,47.1775019 11.878744,47.0121371 11.8427704,46.7873442 C11.7621398,47.2627682 11.7274066,47.4759338 11.6802688,47.725273 C11.6219667,48.0560027 11.5177672,48.5546811 11.483034,48.6967915 L11.0054529,50.6062388 L12.5758884,50.6062388 L12.1690141,48.6967915 Z" id="Fill-9"></path>
                                <polygon id="Fill-11" points="21.1376147 46.9423738 19.347736 46.9423738 19.347736 53.6060606 17.6659879 53.6060606 17.6659879 46.9423738 15.853211 46.9423738 15.853211 45.6969697 21.1376147 45.6969697"></polygon>
                                <polygon id="Fill-13" points="22.8990826 53.6060606 24.6605505 53.6060606 24.6605505 45.6969697 22.8990826 45.6969697"></polygon>
                                <path d="M32.3745722,47.0442121 C32.516714,47.4581693 32.587156,48.2647586 32.587156,49.6446159 C32.587156,51.3719463 32.5041351,52.0869632 32.2450094,52.5473338 C31.8550629,53.2485521 31.0764278,53.6060606 29.9682251,53.6060606 C28.6235387,53.6060606 27.7971038,53.1118208 27.4914361,52.1434119 C27.3606153,51.7068753 27.3027523,51.0031481 27.3027523,49.6446159 C27.3027523,48.0678153 27.3731942,47.387922 27.585778,46.9162617 C27.9505666,46.1121813 28.7531016,45.6969697 29.9682251,45.6969697 C31.2298907,45.6969697 32.0676466,46.16863 32.3745722,47.0442121 M29.0361273,47.7353952 C29.0248062,47.849547 29.0009063,48.2986278 28.9770063,48.6435921 C28.9656853,48.9546872 28.9656853,49.2758177 28.9656853,49.7725663 C28.9656853,50.5101627 28.9895853,51.2816283 29.0248062,51.5575998 C29.1065692,52.1785356 29.3782738,52.4319275 29.9569041,52.4319275 C30.5455975,52.4319275 30.8059811,52.1220868 30.876423,51.3606565 C30.876423,51.2465047 30.8877441,51.1198087 30.900323,50.4060462 C30.911644,49.955711 30.9242229,49.5869127 30.9242229,49.3799342 C30.9242229,48.9082739 30.9242229,48.9433975 30.8877441,48.1380626 C30.8412021,47.1483286 30.6286183,46.8698484 29.9569041,46.8698484 C29.3669528,46.8698484 29.1065692,47.113205 29.0361273,47.7353952" id="Fill-15"></path>
                                <path d="M40.5137615,53.6060606 L38.2634298,53.6060606 L37.0527539,49.4796907 C37.029377,49.3827973 36.9949269,49.2187243 36.8448228,48.6257363 C36.6368916,47.8079554 36.6258184,47.7369002 36.4178872,46.6219793 L36.4412641,46.894573 C36.4867875,47.5947898 36.4634106,47.2149674 36.5212376,48.0327483 L36.5446145,48.3415154 C36.6258184,49.3492075 36.6479649,49.6566828 36.6479649,49.96545 L36.6479649,53.6060606 L35.2293578,53.6060606 L35.2293578,45.6969697 L37.3751087,45.6969697 L38.2634298,48.4358251 C38.3901571,48.7911011 38.587015,49.5145724 38.7715692,50.2742172 C38.9561235,51.0441973 39.0484006,51.5067021 39.2440282,52.5609031 C39.1874315,51.6953214 39.1640546,51.32971 39.1406778,50.6411204 L39.1296045,50.3930732 C39.1062276,49.6566828 39.1062276,49.8349668 39.1062276,49.7031917 C39.0951544,49.4680635 39.0951544,49.3608347 39.0951544,49.3014067 L39.0951544,45.6969697 L40.5137615,45.6969697 L40.5137615,53.6060606 Z" id="Fill-16"></path>
                                <path d="M49.3211009,53.6060606 L47.6340612,53.6060606 L47.203618,51.8516429 L45.051402,51.8516429 L44.6209588,53.6060606 L43.1559633,53.6060606 L45.2374725,45.6969697 L47.3313865,45.6969697 L49.3211009,53.6060606 Z M46.5176379,48.6967915 C46.4246027,48.2704602 46.3774648,47.9733203 46.262101,47.2627682 C46.2496963,47.1775019 46.2261274,47.0121371 46.1913942,46.7873442 C46.1107637,47.2627682 46.0760305,47.4759338 46.0288926,47.725273 C45.9705905,48.0560027 45.866391,48.5546811 45.8316578,48.6967915 L45.3540768,50.6062388 L46.9245122,50.6062388 L46.5176379,48.6967915 Z" id="Fill-17"></path>
                                <polygon id="Fill-18" points="52.9581008 52.3606565 55.4862385 52.3606565 55.4862385 53.6060606 51.0825688 53.6060606 51.0825688 45.6969697 52.9581008 45.6969697"></polygon>
                                <path d="M66.9357798,51.0121232 C66.9357798,52.1576304 66.8859764,52.3790951 66.5910878,52.7889321 C66.1861075,53.3247749 65.4115334,53.6060606 64.293578,53.6060606 C63.1743119,53.6060606 62.4010485,53.3247749 61.9947575,52.7889321 C61.6998689,52.3790951 61.6513761,52.1576304 61.6513761,51.0121232 L61.6513761,45.6969697 L63.3840105,45.6969697 L63.3840105,51.0121232 C63.3840105,51.7019731 63.395806,51.7363383 63.457405,51.9361656 C63.5557012,52.2149057 63.9003932,52.4147331 64.293578,52.4147331 C64.6867628,52.4147331 65.0301442,52.2149057 65.129751,51.9361656 C65.1900393,51.7363383 65.2031455,51.7019731 65.2031455,51.0121232 L65.2031455,45.6969697 L66.9357798,45.6969697 L66.9357798,51.0121232 Z" id="Fill-19"></path>
                                <path d="M74.8623853,53.6060606 L72.6132841,53.6060606 L71.4013777,49.4796907 C71.3780009,49.3827973 71.3435507,49.2187243 71.1934466,48.6257363 C70.9855155,47.8079554 70.9744422,47.7369002 70.7665111,46.6219793 L70.789888,46.894573 C70.8354113,47.5947898 70.8120345,47.2149674 70.8698615,48.0327483 L70.8932384,48.3415154 C70.9744422,49.3492075 70.9978191,49.6566828 70.9978191,49.96545 L70.9978191,53.6060606 L69.5779817,53.6060606 L69.5779817,45.6969697 L71.7237325,45.6969697 L72.6132841,48.4358251 C72.7400113,48.7911011 72.9356388,49.5145724 73.1201931,50.2742172 C73.3047474,51.0441973 73.3970245,51.5067021 73.5938824,52.5609031 C73.5360554,51.6953214 73.5126785,51.32971 73.4893016,50.6411204 L73.4782284,50.3930732 C73.4548515,49.6566828 73.4548515,49.8349668 73.4548515,49.7031917 C73.4437782,49.4680635 73.4437782,49.3608347 73.4437782,49.3014067 L73.4437782,45.6969697 L74.8623853,45.6969697 L74.8623853,53.6060606 Z" id="Fill-20"></path>
                                <polygon id="Fill-21" points="77.5045872 53.6060606 79.266055 53.6060606 79.266055 45.6969697 77.5045872 45.6969697"></polygon>
                                <path d="M86.9800768,47.0442121 C87.1222186,47.4581693 87.1926606,48.2647586 87.1926606,49.6446159 C87.1926606,51.3719463 87.1096397,52.0869632 86.850514,52.5473338 C86.4605675,53.2485521 85.6819324,53.6060606 84.5737297,53.6060606 C83.2290433,53.6060606 82.4038663,53.1118208 82.0969407,52.1434119 C81.9661199,51.7068753 81.9082569,51.0031481 81.9082569,49.6446159 C81.9082569,48.0678153 81.9786988,47.387922 82.1912825,46.9162617 C82.5560712,46.1121813 83.3586062,45.6969697 84.5737297,45.6969697 C85.8353952,45.6969697 86.6731512,46.16863 86.9800768,47.0442121 M83.6416319,47.7353952 C83.6303108,47.849547 83.6064109,48.2986278 83.5825109,48.6435921 C83.5711899,48.9546872 83.5711899,49.2758177 83.5711899,49.7725663 C83.5711899,50.5101627 83.5950899,51.2816283 83.6303108,51.5575998 C83.7120738,52.1785356 83.9837784,52.4319275 84.5611508,52.4319275 C85.1511021,52.4319275 85.4114857,52.1220868 85.4819276,51.3606565 C85.4819276,51.2465047 85.4932487,51.1198087 85.5058276,50.4060462 C85.5171486,49.955711 85.5297275,49.5869127 85.5297275,49.3799342 C85.5297275,48.9082739 85.5297275,48.9433975 85.4932487,48.1380626 C85.4467067,47.1483286 85.2341229,46.8698484 84.5611508,46.8698484 C83.9724574,46.8698484 83.7120738,47.113205 83.6416319,47.7353952" id="Fill-22"></path>
                                <path d="M95.1192661,53.6060606 L92.8701648,53.6060606 L91.6582585,49.4796907 C91.6348816,49.3827973 91.6004315,49.2187243 91.4503273,48.6257363 C91.2423962,47.8079554 91.231323,47.7369002 91.0233918,46.6219793 L91.0467687,46.894573 C91.0922921,47.5947898 91.0689152,47.2149674 91.1279726,48.0327483 L91.1501191,48.3415154 C91.231323,49.3492075 91.2534695,49.6566828 91.2534695,49.96545 L91.2534695,53.6060606 L89.8348624,53.6060606 L89.8348624,45.6969697 L91.9806133,45.6969697 L92.8701648,48.4358251 C92.9968921,48.7911011 93.1925196,49.5145724 93.3770738,50.2742172 C93.5616281,51.0441973 93.6539052,51.5067021 93.8507631,52.5609031 C93.7929361,51.6953214 93.7695592,51.32971 93.7461824,50.6411204 L93.7351091,50.3930732 C93.7117322,49.6566828 93.7117322,49.8349668 93.7117322,49.7031917 C93.700659,49.4680635 93.700659,49.3608347 93.700659,49.3014067 L93.700659,45.6969697 L95.1192661,45.6969697 L95.1192661,53.6060606 Z" id="Fill-23"></path>
                                <path d="M47.347408,60.0764224 C47.4888913,60.4451183 47.559633,61.1611909 47.559633,62.3889231 C47.559633,63.9239019 47.4775727,64.5584601 47.2172433,64.9672861 C46.828164,65.5918118 46.0500055,65.9090909 44.9407759,65.9090909 C43.596684,65.9090909 42.771836,65.4689132 42.4648171,64.6098769 C42.3346524,64.22237 42.2752294,63.5978443 42.2752294,62.3889231 C42.2752294,60.9881296 42.345971,60.383669 42.5596109,59.9635564 C42.924638,59.2474838 43.7268487,58.8787879 44.9407759,58.8787879 C46.2028076,58.8787879 47.0403891,59.2989005 47.347408,60.0764224 M44.0098154,60.6896615 C43.9970819,60.7924951 43.9744446,61.1925426 43.9503924,61.4985351 C43.9390737,61.77443 43.9390737,62.0616115 43.9390737,62.5030433 C43.9390737,63.1564125 43.9617111,63.8411334 43.9970819,64.0869307 C44.0805571,64.6412286 44.3522052,64.8644526 44.9294573,64.8644526 C45.5194429,64.8644526 45.7783575,64.5898118 45.8490991,63.9138693 C45.8490991,63.8122899 45.8618327,63.6981697 45.8731513,63.0636115 C45.88447,62.664818 45.8972035,62.3375064 45.8972035,62.1531584 C45.8972035,61.7342998 45.8972035,61.7643975 45.8618327,61.0483248 C45.8137283,60.1679694 45.6015033,59.9234262 44.9294573,59.9234262 C44.3394716,59.9234262 44.0805571,60.1378718 44.0098154,60.6896615" id="Fill-24"></path>
                                <polygon id="Fill-25" points="51.6624734 61.7461905 53.6315384 61.7461905 53.6315384 62.8518197 51.6624734 62.8518197 51.6624734 65.9090909 50.2018349 65.9090909 50.2018349 58.8787879 53.7247706 58.8787879 53.7247706 59.9857086 51.6624734 59.9857086"></polygon>
                                <path d="M6.16513761,76.4964956 C6.16513761,78.0696274 6.13404834,78.3035452 5.78801124,78.8493536 C5.33113413,79.5812018 4.37277355,79.969697 3.0359349,79.969697 C0.974581061,79.969697 0,79.0217141 0,77.0108413 C0,76.8863587 0.0162204892,76.6059309 0.0162204892,76.372013 L2.23302068,76.372013 L2.23302068,77.042304 C2.23302068,77.9766074 2.48443827,78.3815179 3.09811344,78.3815179 C3.5076808,78.3815179 3.80640814,78.19411 3.88480717,77.8849554 C3.94698571,77.664717 3.94698571,77.6811322 3.94698571,76.6989509 L3.94698571,69.4242424 L6.16513761,69.4242424 L6.16513761,76.4964956 Z" id="Fill-26"></path>
                                <path d="M15.6587466,71.219787 C15.8480064,71.7724697 15.9412844,72.8468308 15.9412844,74.6895557 C15.9412844,76.9919507 15.8317841,77.9436433 15.4857091,78.5569862 C14.9665965,79.4938507 13.9283714,79.969697 12.4494413,79.969697 C10.6568807,79.969697 9.55647025,79.3091738 9.14685799,78.0204796 C8.97382047,77.4367928 8.89541284,76.4999283 8.89541284,74.6895557 C8.89541284,72.5853176 8.99004274,71.6808052 9.27258057,71.0512862 C9.76060045,69.9769251 10.8299183,69.4242424 12.4494413,69.4242424 C14.1325016,69.4242424 15.2504862,70.0524134 15.6587466,71.219787 M11.207086,72.1404754 C11.1922156,72.2941482 11.159771,72.892663 11.1286783,73.3536813 C11.1124561,73.7675192 11.1124561,74.1975333 11.1124561,74.8580565 C11.1124561,75.8407532 11.1449006,76.8692821 11.1922156,77.2372879 C11.3017159,78.0663118 11.6640132,78.4033135 12.4345709,78.4033135 C13.2213509,78.4033135 13.5674259,77.9881275 13.660704,76.9757746 C13.660704,76.8234499 13.6769262,76.6536011 13.6931485,75.7019085 C13.7080189,75.1033936 13.7242412,74.6127193 13.7242412,74.336378 C13.7242412,73.706859 13.7242412,73.7526912 13.6769262,72.67833 C13.613389,71.3586317 13.3308512,70.9892779 12.4345709,70.9892779 C11.6477909,70.9892779 11.3017159,71.3114515 11.207086,72.1404754" id="Fill-27"></path>
                                <path d="M24.8366972,76.511543 C24.8366972,78.0381648 24.780012,78.3336399 24.4349713,78.8780803 C23.9617727,79.5962492 23.0585054,79.969697 21.7535123,79.969697 C20.4497514,79.969697 19.5464842,79.5962492 19.0732856,78.8780803 C18.7282449,78.3336399 18.6715596,78.0381648 18.6715596,76.511543 L18.6715596,69.4242424 L20.6925122,69.4242424 L20.6925122,76.511543 C20.6925122,77.4307991 20.7072997,77.4773091 20.7787724,77.7426896 C20.8933752,78.1161374 21.2951011,78.3815179 21.7535123,78.3815179 C22.2131558,78.3815179 22.6148817,78.1161374 22.7294845,77.7426896 C22.8009572,77.4773091 22.8145124,77.4307991 22.8145124,76.511543 L22.8145124,69.4242424 L24.8366972,69.4242424 L24.8366972,76.511543 Z" id="Fill-28"></path>
                                <path d="M29.7646398,79.0909091 L27.5669725,79.0909091 L27.5669725,69.4242424 L31.0260064,69.4242424 C32.6902324,69.4242424 32.980569,69.482782 33.5626313,69.9027399 C34.0807918,70.2794294 34.3391775,70.9170018 34.3391775,71.8459995 C34.3391775,73.366756 33.821017,74.0195996 32.4151767,74.2804826 C33.902978,74.4675547 34.3225075,74.9893205 34.3711284,76.6716972 C34.3877985,76.9745759 34.4030793,77.4963418 34.4364194,78.1339142 C34.4517003,78.5691432 34.4836512,78.6989484 34.612844,79.0909091 L32.2373629,79.0909091 C32.140121,78.4826065 32.140121,78.5691432 32.140121,77.2647286 C32.140121,75.3392854 31.9623072,75.0478601 30.8481926,75.0478601 L29.7646398,75.0478601 L29.7646398,79.0909091 Z M30.6703788,73.6123678 C31.6719706,73.6123678 32.0442682,73.2356783 32.0442682,72.2074178 C32.0442682,71.7874599 31.9303563,71.3954992 31.7525425,71.1638861 C31.5427778,70.932273 31.364964,70.8737334 30.7342807,70.8737334 L29.7646398,70.8737334 L29.7646398,73.6123678 L30.6703788,73.6123678 Z" id="Fill-29"></path>
                                <path d="M44.3889908,79.0909091 L41.3889753,79.0909091 L39.7732773,74.0475968 C39.7428672,73.9317903 39.6965911,73.7281743 39.4969426,73.0053377 C39.220608,72.0050744 39.2047419,71.9172651 38.9284073,70.5543109 L38.9588173,70.8890046 C39.0196374,71.7441915 38.9892274,71.2796927 39.0659135,72.2786834 L39.0963236,72.6566454 C39.2047419,73.8885219 39.235152,74.2652114 39.235152,74.6419008 L39.235152,79.0909091 L37.3431193,79.0909091 L37.3431193,69.4242424 L40.2043064,69.4242424 L41.3889753,72.772452 C41.5582138,73.2064085 41.8200044,74.0908652 42.065929,75.0185903 C42.3118536,75.960314 42.4348159,76.5253483 42.6966066,77.8157643 C42.6199204,76.7569614 42.5895104,76.3077337 42.5577782,75.467818 L42.5432343,75.1636667 C42.5128242,74.2652114 42.5128242,74.4815533 42.5128242,74.3224783 C42.4969581,74.0335982 42.4969581,73.9025205 42.4969581,73.8299823 L42.4969581,69.4242424 L44.3889908,69.4242424 L44.3889908,79.0909091 Z" id="Fill-30"></path>
                                <path d="M55.0458716,79.0909091 L52.8775266,79.0909091 L52.3235511,76.9453061 L49.5575295,76.9453061 L49.0048393,79.0909091 L47.1192661,79.0909091 L49.7966001,69.4242424 L52.4880728,69.4242424 L55.0458716,79.0909091 Z M51.4418174,73.0906019 C51.3222821,72.5688361 51.2618718,72.2074178 51.112774,71.3369596 C51.0973501,71.2364243 51.0677876,71.0328083 51.0228011,70.7579268 C50.9186897,71.3369596 50.8737033,71.5978426 50.813293,71.9032665 C50.7387441,72.3079531 50.6037849,72.9175284 50.5600838,73.0906019 L49.9469833,75.4245496 L51.9649451,75.4245496 L51.4418174,73.0906019 Z" id="Fill-31"></path>
                                <polygon id="Fill-32" points="60.0273686 77.5699523 63.0605505 77.5699523 63.0605505 79.0909091 57.7761468 79.0909091 57.7761468 69.4242424 60.0273686 69.4242424"></polygon>
                                <polygon id="Fill-33" points="65.7908257 79.0909091 67.5522936 79.0909091 67.5522936 69.4242424 65.7908257 69.4242424"></polygon>
                                <path d="M74.2422204,72.7241622 C74.2422204,71.3734598 74.0390015,70.9892779 73.3570338,70.9892779 C72.7922598,70.9892779 72.429458,71.3882878 72.429458,72.0326349 C72.429458,72.4936531 72.617716,72.8616589 73.0528288,73.2000085 C73.2847228,73.3833374 73.5465385,73.5518382 73.8071075,73.706859 L74.0975984,73.8605317 L74.3880892,74.0290325 L74.6636191,74.1827052 C75.9539967,74.8877126 76.4477064,75.6560763 76.4477064,76.9299424 C76.4477064,79.0476606 75.4752479,79.969697 73.2410868,79.969697 C72.0230202,79.969697 71.0505617,79.5396829 70.6304097,78.8036714 C70.3548798,78.3264771 70.2825688,77.8358027 70.2825688,76.637425 L72.3272252,76.637425 C72.3421861,77.3451284 72.3708611,77.5446333 72.458133,77.8047986 C72.5890409,78.1889804 72.9368818,78.4046615 73.3869556,78.4046615 C74.0103264,78.4046615 74.3880892,77.9584713 74.3880892,77.2062837 C74.3880892,76.3934358 74.1262734,76.1009184 72.7187021,75.3339027 C70.9209005,74.3660341 70.3698407,73.6758548 70.3698407,72.3858126 C70.3698407,70.5120836 71.4719604,69.4242424 73.3719947,69.4242424 C74.4741143,69.4242424 75.34434,69.761244 75.7944138,70.3435828 C76.1858907,70.8504333 76.3018376,71.3424556 76.3018376,72.4019887 L76.3018376,72.7241622 L74.2422204,72.7241622 Z" id="Fill-34"></path>
                                <polygon id="Fill-35" points="86.2238532 70.946472 83.8387813 70.946472 83.8387813 79.0909091 81.5958569 79.0909091 81.5958569 70.946472 79.1779817 70.946472 79.1779817 69.4242424 86.2238532 69.4242424"></polygon>
                                <path d="M92.91378,72.7241622 C92.91378,71.3734598 92.7105611,70.9892779 92.0285934,70.9892779 C91.4638194,70.9892779 91.1010176,71.3882878 91.1010176,72.0326349 C91.1010176,72.4936531 91.2892756,72.8616589 91.7243885,73.2000085 C91.9562824,73.3833374 92.2180982,73.5518382 92.4786672,73.706859 L92.769158,73.8605317 L93.0584021,74.0290325 L93.3351787,74.1827052 C94.6255563,74.8877126 95.1192661,75.6560763 95.1192661,76.9299424 C95.1192661,79.0476606 94.1468075,79.969697 91.9126465,79.969697 C90.6945798,79.969697 89.7221213,79.5396829 89.3019694,78.8036714 C89.0264395,78.3264771 88.9541284,77.8358027 88.9541284,76.637425 L90.9987848,76.637425 C91.0137457,77.3451284 91.0424208,77.5446333 91.1296927,77.8047986 C91.2606006,78.1889804 91.6084415,78.4046615 92.0585152,78.4046615 C92.6818861,78.4046615 93.0584021,77.9584713 93.0584021,77.2062837 C93.0584021,76.3934358 92.797833,76.1009184 91.3902617,75.3339027 C89.5924602,74.3660341 89.0414004,73.6758548 89.0414004,72.3858126 C89.0414004,70.5120836 90.14352,69.4242424 92.0435543,69.4242424 C93.145674,69.4242424 94.0158997,69.761244 94.4659734,70.3435828 C94.8574503,70.8504333 94.9733973,71.3424556 94.9733973,72.4019887 L94.9733973,72.7241622 L92.91378,72.7241622 Z" id="Fill-36"></path>
                                <polygon id="Fill-37" points="0 43.0606061 96 43.0606061 96 39.5454545 0 39.5454545"></polygon>
                                <polygon id="Fill-38" points="0 64.1515152 40.5137615 64.1515152 40.5137615 60.6363636 0 60.6363636"></polygon>
                                <polygon id="Fill-39" points="55.4862385 64.1515152 96 64.1515152 96 60.6363636 55.4862385 60.6363636"></polygon>
                                <polygon id="Fill-40" points="0 87 96 87 96 83.4848485 0 83.4848485"></polygon>
                            </g>
                        </g>
                    </g>
                </g>
            </g>
        </g>
    </g>
</svg>