<?xml version="1.0" standalone="no"?>
<!DOCTYPE svg PUBLIC "-//W3C//DTD SVG 20010904//EN"
 "http://www.w3.org/TR/2001/REC-SVG-20010904/DTD/svg10.dtd">
<svg version="1.0" xmlns="http://www.w3.org/2000/svg"
 width="128.000000pt" height="128.000000pt" viewBox="0 0 128.000000 128.000000"
 preserveAspectRatio="xMidYMid meet">
<metadata>
Created by potrace 1.14, written by Peter Selinger 2001-2017
</metadata>
<g transform="translate(0.000000,128.000000) scale(0.100000,-0.100000)"
fill="#000000" stroke="none">
<path d="M0 640 l0 -640 640 0 640 0 0 640 0 640 -640 0 -640 0 0 -640z m1153
353 c41 -56 78 -115 82 -131 9 -41 -14 -90 -63 -134 -93 -84 -176 -100 -237
-47 -19 17 -35 34 -35 38 0 4 23 24 52 45 41 32 54 37 67 27 29 -21 44 -24 60
-14 32 20 22 49 -49 145 -38 53 -70 98 -70 101 0 12 105 86 111 79 4 -4 40
-53 82 -109z m-328 -195 c33 -44 68 -95 77 -112 37 -67 15 -140 -61 -207 -64
-57 -117 -82 -172 -83 -61 0 -94 25 -179 137 l-68 91 51 38 c28 21 54 38 58
38 4 0 29 -28 55 -62 75 -99 95 -118 126 -118 33 0 78 39 78 68 0 11 -30 60
-66 110 -37 50 -67 92 -68 95 -1 5 96 86 104 86 3 0 32 -36 65 -81z m-332
-352 l105 -140 -63 -47 -63 -48 -108 34 c-60 19 -115 35 -122 35 -7 0 15 -36
49 -81 33 -44 59 -82 57 -83 -1 -1 -25 -19 -52 -39 l-48 -36 -82 107 c-45 59
-94 124 -109 144 l-28 36 66 51 67 50 111 -39 c60 -22 112 -39 114 -37 1 2
-22 37 -52 77 -30 40 -55 77 -55 81 0 9 93 79 102 76 4 -1 54 -65 111 -141z"/>
</g>
</svg>
