<?xml version="1.0" standalone="no"?>
<!DOCTYPE svg PUBLIC "-//W3C//DTD SVG 20010904//EN"
 "http://www.w3.org/TR/2001/REC-SVG-20010904/DTD/svg10.dtd">
<svg version="1.0" xmlns="http://www.w3.org/2000/svg"
 width="512.000000pt" height="512.000000pt" viewBox="0 0 512.000000 512.000000"
 preserveAspectRatio="xMidYMid meet">
<metadata>
Created by potrace 1.14, written by Peter Selinger 2001-2017
</metadata>
<g transform="translate(0.000000,512.000000) scale(0.100000,-0.100000)"
fill="#000000" stroke="none">
<path d="M0 2560 l0 -2560 2560 0 2560 0 0 2560 0 2560 -2560 0 -2560 0 0
-2560z m2637 1619 c97 -64 366 -196 496 -244 232 -85 499 -144 752 -165 77 -7
141 -14 143 -15 2 -2 6 -203 9 -447 5 -418 -7 -1101 -26 -1425 -10 -165 -26
-210 -110 -311 -134 -161 -341 -298 -1001 -662 -113 -62 -235 -132 -273 -156
l-67 -44 -78 49 c-42 26 -214 123 -381 215 -508 280 -675 389 -827 541 -66 66
-99 108 -124 158 -31 63 -34 77 -41 210 -25 444 -37 1343 -22 1710 l6 167 46
0 c78 0 310 30 435 56 224 48 431 116 639 212 94 44 322 175 332 192 9 14 6
15 92 -41z"/>
<path d="M2745 2650 l-521 -521 -199 191 c-109 104 -202 190 -205 190 -10 0
-210 -206 -210 -217 0 -11 598 -587 614 -591 6 -1 292 279 636 623 l625 625
-110 110 -110 110 -520 -520z"/>
</g>
</svg>
